<svg width="48" height="48" viewBox="0 0 48 48" fill="none" xmlns="http://www.w3.org/2000/svg">
<g clip-path="url(#clip0_974_74686)">
<path d="M24 0C19.2533 0 14.6131 1.40758 10.6663 4.04473C6.71954 6.68188 3.64341 10.4302 1.8269 14.8156C0.0103989 19.201 -0.464881 24.0266 0.461164 28.6822C1.38721 33.3377 3.67299 37.6141 7.02945 40.9706C10.3859 44.327 14.6623 46.6128 19.3178 47.5388C23.9734 48.4649 28.799 47.9896 33.1844 46.1731C37.5698 44.3566 41.3181 41.2805 43.9553 37.3337C46.5924 33.3869 48 28.7468 48 24C48 17.6348 45.4714 11.5303 40.9706 7.02944C36.4697 2.52856 30.3652 0 24 0V0ZM24 44C20.0444 44 16.1776 42.827 12.8886 40.6294C9.59962 38.4318 7.03617 35.3082 5.52242 31.6537C4.00867 27.9992 3.6126 23.9778 4.38431 20.0982C5.15601 16.2186 7.06082 12.6549 9.85787 9.85787C12.6549 7.06081 16.2186 5.156 20.0982 4.38429C23.9778 3.61259 27.9992 4.00866 31.6537 5.52241C35.3082 7.03616 38.4318 9.59961 40.6294 12.8886C42.827 16.1776 44 20.0444 44 24C44 29.3043 41.8929 34.3914 38.1421 38.1421C34.3914 41.8929 29.3043 44 24 44Z" fill="#6FCF97"/>
</g>
<path d="M21.001 33.915C20.4751 33.9154 19.9542 33.8121 19.4683 33.611C18.9823 33.4099 18.5408 33.1149 18.169 32.743L10.601 25.345C10.2217 24.9737 10.0055 24.4669 9.99987 23.9362C9.99424 23.4055 10.1997 22.8942 10.571 22.515C10.9423 22.1357 11.449 21.9195 11.9798 21.9139C12.5105 21.9082 13.0217 22.1137 13.401 22.485L20.987 29.899L34.599 16.499C34.9828 16.1612 35.4815 15.9833 35.9924 16.0018C36.5034 16.0203 36.9879 16.2337 37.3463 16.5983C37.7048 16.9629 37.91 17.451 37.9198 17.9622C37.9296 18.4734 37.7432 18.9689 37.399 19.347L23.813 32.761C23.4432 33.1288 23.0044 33.42 22.5219 33.6181C22.0394 33.8161 21.5226 33.917 21.001 33.915Z" fill="#6FCF97"/>
<defs>
<clipPath id="clip0_974_74686">
<rect width="48" height="48" fill="white"/>
</clipPath>
</defs>
</svg>
