<svg width="48" height="48" viewBox="0 0 48 48" fill="none" xmlns="http://www.w3.org/2000/svg">
<g clip-path="url(#clip0_974_74635)">
<path d="M31.9998 16.0002C31.6248 15.6253 31.1162 15.4147 30.5858 15.4147C30.0555 15.4147 29.5469 15.6253 29.1718 16.0002L23.9998 21.1722L18.8278 16.0002C18.4506 15.6359 17.9454 15.4343 17.421 15.4389C16.8967 15.4435 16.395 15.6538 16.0242 16.0246C15.6534 16.3954 15.4431 16.8971 15.4385 17.4214C15.4339 17.9458 15.6355 18.451 15.9999 18.8282L21.1718 24.0002L15.9999 29.1722C15.6355 29.5494 15.4339 30.0547 15.4385 30.579C15.4431 31.1034 15.6534 31.6051 16.0242 31.9759C16.395 32.3467 16.8967 32.557 17.421 32.5616C17.9454 32.5661 18.4506 32.3646 18.8278 32.0002L23.9998 26.8282L29.1718 32.0002C29.549 32.3646 30.0542 32.5661 30.5786 32.5616C31.103 32.557 31.6046 32.3467 31.9755 31.9759C32.3463 31.6051 32.5566 31.1034 32.5612 30.579C32.5657 30.0547 32.3641 29.5494 31.9998 29.1722L26.8278 24.0002L31.9998 18.8282C32.3748 18.4532 32.5854 17.9446 32.5854 17.4142C32.5854 16.8839 32.3748 16.3753 31.9998 16.0002Z" fill="#EB5757"/>
<path d="M24 0C19.2533 0 14.6131 1.40758 10.6663 4.04473C6.71954 6.68188 3.6434 10.4302 1.82689 14.8156C0.0103912 19.201 -0.464889 24.0266 0.461156 28.6822C1.3872 33.3377 3.67298 37.6141 7.02944 40.9706C10.3859 44.327 14.6623 46.6128 19.3178 47.5388C23.9734 48.4649 28.799 47.9896 33.1844 46.1731C37.5698 44.3566 41.3181 41.2805 43.9553 37.3337C46.5924 33.3869 48 28.7468 48 24C47.9931 17.6369 45.4623 11.5364 40.963 7.03704C36.4636 2.53766 30.3631 0.00688216 24 0V0ZM24 44C20.0444 44 16.1776 42.827 12.8886 40.6294C9.59962 38.4318 7.03617 35.3082 5.52241 31.6537C4.00866 27.9992 3.61259 23.9778 4.3843 20.0982C5.156 16.2186 7.06082 12.6549 9.85787 9.85787C12.6549 7.06081 16.2186 5.156 20.0982 4.38429C23.9778 3.61259 27.9992 4.00866 31.6537 5.52241C35.3082 7.03616 38.4318 9.59961 40.6294 12.8886C42.827 16.1776 44 20.0444 44 24C43.9942 29.3025 41.8852 34.3862 38.1357 38.1357C34.3862 41.8852 29.3025 43.9942 24 44Z" fill="#EB5757"/>
</g>
<defs>
<clipPath id="clip0_974_74635">
<rect width="48" height="48" fill="white"/>
</clipPath>
</defs>
</svg>
