<svg width="95" height="102" viewBox="0 0 95 102" fill="none" xmlns="http://www.w3.org/2000/svg">
    <path fill-rule="evenodd" clip-rule="evenodd"
        d="M0 22.9189V65.2965C0 70.5433 2.68107 75.4279 7.11146 78.2526L40.5642 99.5816C45.7724 102.902 52.465 102.795 57.5639 99.3097L88.3004 78.2983C92.4934 75.432 95 70.6863 95 65.6142V30.6041L51.926 73.5822C49.9954 75.5054 47.379 76.5855 44.6512 76.5855C41.9234 76.5855 39.3071 75.5054 37.3764 73.5822L19.0748 55.3208C18.7555 55.0033 18.5021 54.6261 18.3292 54.2107C18.1563 53.7953 18.0673 53.3499 18.0673 52.9001C18.0673 52.4503 18.1563 52.005 18.3292 51.5896C18.5021 51.1742 18.7555 50.7969 19.0748 50.4795C19.3929 50.1608 19.7709 49.908 20.1871 49.7354C20.6033 49.5629 21.0496 49.4741 21.5003 49.4741C21.951 49.4741 22.3973 49.5629 22.8135 49.7354C23.2297 49.908 23.6077 50.1608 23.9258 50.4795L42.2206 68.7546C42.5387 69.0733 42.9166 69.3262 43.3329 69.4987C43.7491 69.6712 44.1954 69.7601 44.6461 69.7601C45.0968 69.7601 45.5431 69.6712 45.9593 69.4987C46.3755 69.3262 46.7535 69.0733 47.0716 68.7546L94.3799 21.5448C94.5452 21.3792 94.7267 21.2313 94.9214 21.1033C94.6561 18.4595 93.7021 15.925 91.7984 14.0557C72.7415 -4.65712 23.3274 -4.68514 3.43905 13.9713C1.00471 16.2549 0 19.5847 0 22.9189Z"
        fill="#F7941E" />
    <path fill-rule="evenodd" clip-rule="evenodd"
        d="M95 46.7732V30.6041L77.3713 48.1936C83.2738 47.8872 89.191 47.394 95 46.7732ZM67.3441 48.5244C43.6134 48.8294 21.277 45.5039 8.55856 34.5924C5.07336 31.6024 2.25213 28.7635 0 26.074V22.9189C0 19.5847 1.00471 16.2549 3.43905 13.9714C23.3274 -4.68515 72.7415 -4.65713 91.7984 14.0557C93.7021 15.925 94.6561 18.4595 94.9214 21.1033C94.7267 21.2313 94.5452 21.3792 94.3799 21.5449L67.3441 48.5244Z"
        fill="#1755A6" />
</svg>
