<svg width="238" height="238" viewBox="0 0 238 238" fill="none" xmlns="http://www.w3.org/2000/svg">
<path d="M238 182.022H0V182.141H238V182.022Z" fill="#EBEBEB"/>
<path d="M214.152 189.682H198.387V189.801H214.152V189.682Z" fill="#EBEBEB"/>
<path d="M130.053 188.191H123.917V188.31H130.053V188.191Z" fill="#EBEBEB"/>
<path d="M166.443 188.696H153.524V188.815H166.443V188.696Z" fill="#EBEBEB"/>
<path d="M197.911 185.265H171.203V185.384H197.911V185.265Z" fill="#EBEBEB"/>
<path d="M37.5995 190.771H24.9712V190.89H37.5995V190.771Z" fill="#EBEBEB"/>
<path d="M52.7834 190.771H41.8354V190.89H52.7834V190.771Z" fill="#EBEBEB"/>
<path d="M91.3015 188.135H62.356V188.254H91.3015V188.135Z" fill="#EBEBEB"/>
<path d="M112.812 160.793H20.9012C20.1812 160.792 19.4911 160.505 18.9824 159.996C18.4737 159.486 18.188 158.796 18.188 158.076V28.8748C18.1943 28.1589 18.4827 27.4744 18.9907 26.97C19.4987 26.4655 20.1853 26.1819 20.9012 26.1807H112.812C113.533 26.1807 114.224 26.467 114.734 26.9767C115.244 27.4865 115.53 28.1778 115.53 28.8986V158.076C115.53 158.796 115.244 159.488 114.734 159.997C114.224 160.507 113.533 160.793 112.812 160.793ZM20.9012 26.2759C20.2127 26.2771 19.5529 26.5515 19.0665 27.0388C18.5802 27.526 18.307 28.1864 18.307 28.8748V158.076C18.307 158.764 18.5802 159.424 19.0665 159.912C19.5529 160.399 20.2127 160.673 20.9012 160.674H112.812C113.501 160.673 114.161 160.399 114.648 159.912C115.136 159.425 115.41 158.764 115.411 158.076V28.8748C115.41 28.1859 115.136 27.5256 114.648 27.0385C114.161 26.5513 113.501 26.2771 112.812 26.2759H20.9012Z" fill="#EBEBEB"/>
<path d="M215.776 160.793H123.86C123.14 160.792 122.449 160.505 121.94 159.996C121.43 159.487 121.143 158.796 121.142 158.076V28.8748C121.15 28.1585 121.439 27.474 121.948 26.9697C122.457 26.4654 123.144 26.1819 123.86 26.1807H215.776C216.491 26.1831 217.176 26.4673 217.683 26.9716C218.19 27.476 218.478 28.1598 218.484 28.8748V158.076C218.484 158.795 218.199 159.485 217.691 159.994C217.184 160.503 216.495 160.791 215.776 160.793ZM123.86 26.2759C123.171 26.2771 122.511 26.5513 122.024 27.0385C121.537 27.5256 121.262 28.1859 121.261 28.8748V158.076C121.262 158.764 121.537 159.425 122.024 159.912C122.511 160.399 123.171 160.673 123.86 160.674H215.776C216.465 160.673 217.125 160.399 217.612 159.912C218.099 159.425 218.373 158.764 218.375 158.076V28.8748C218.373 28.1859 218.099 27.5256 217.612 27.0385C217.125 26.5513 216.465 26.2771 215.776 26.2759H123.86Z" fill="#EBEBEB"/>
<path d="M222.32 92.4253C223.812 87.2689 223.646 81.774 221.844 76.7173C223.757 73.979 225.025 70.8433 225.554 67.5451C226.082 64.2469 225.857 60.8719 224.895 57.6731C223.934 54.4743 222.26 51.5347 220.001 49.0747C217.741 46.6147 214.954 44.6982 211.848 43.4687C210.94 36.9218 208.349 30.7226 204.327 25.4773C200.305 20.2319 194.991 16.1201 188.904 13.5436C182.818 10.9672 176.166 10.0145 169.601 10.7785C163.036 11.5426 156.781 13.9974 151.449 17.9027C148.769 15.0881 145.309 13.1379 141.513 12.3019C137.718 11.466 133.759 11.7824 130.144 13.2105C126.53 14.6387 123.424 17.1137 121.224 20.3182C119.025 23.5228 117.833 27.311 117.8 31.1974C112.778 32.2049 108.105 34.5041 104.242 37.8684C100.379 41.2327 97.4598 45.5458 95.7721 50.3824C94.0845 55.2189 93.6868 60.4118 94.6181 65.449C95.5495 70.4861 97.7778 75.1935 101.083 79.1068C99.4664 82.0222 98.5277 85.2646 98.3369 88.5928C98.146 91.921 98.708 95.2494 99.9809 98.3305C101.254 101.412 103.205 104.166 105.689 106.389C108.174 108.612 111.127 110.246 114.33 111.17C118.07 112.254 122.029 112.329 125.807 111.389C130.927 118.445 138.545 123.282 147.109 124.915C155.672 126.548 164.536 124.853 171.893 120.176C175.477 128.501 178.419 140.992 172.083 153.239C195.098 150.983 211.715 128.911 208.326 108.685C211.692 107.143 214.685 104.892 217.101 102.085C219.516 99.2788 221.297 95.9836 222.32 92.4253Z" fill="#EBEBEB"/>
<path d="M178.176 148.67C178.113 148.67 178.051 148.658 177.993 148.634C177.935 148.611 177.883 148.576 177.838 148.532C177.777 148.471 177.734 148.394 177.713 148.31C177.692 148.226 177.694 148.138 177.719 148.056C180.961 136.765 178.005 125.941 174.958 118.848L173.411 115.255L170.108 117.354C163.47 121.575 155.472 123.106 147.744 121.634C140.017 120.162 133.141 115.799 128.52 109.433L127.196 107.61L125.016 108.153C121.454 109.039 117.711 108.865 114.247 107.653C110.782 106.44 107.748 104.241 105.517 101.326C103.285 98.4119 101.954 94.9088 101.688 91.2479C101.421 87.587 102.23 83.928 104.015 80.7208L105.124 78.7121L103.644 76.9604C100.711 73.4905 98.7335 69.316 97.9059 64.8487C97.0784 60.3813 97.4297 55.7754 98.9251 51.4853C100.421 47.1951 103.008 43.3688 106.434 40.3838C109.859 37.3988 114.003 35.3581 118.457 34.4631L121.104 33.93L121.132 31.2359C121.157 28.0113 122.144 24.8675 123.967 22.2078C125.79 19.548 128.367 17.4936 131.365 16.308C134.364 15.1224 137.649 14.8596 140.798 15.5535C143.947 16.2473 146.817 17.8661 149.04 20.2022L151.058 22.3156L153.438 20.5925C158.305 17.0231 164.014 14.7782 170.008 14.0775C176.002 13.3769 182.076 14.2444 187.634 16.5954C193.192 18.9463 198.045 22.6999 201.717 27.4891C205.389 32.2782 207.755 37.9387 208.583 43.9165L208.854 45.8205L210.658 46.5345C213.296 47.5788 215.664 49.207 217.582 51.2969C219.501 53.3868 220.922 55.8842 221.738 58.6016C222.553 61.319 222.743 64.1859 222.292 66.9871C221.842 69.7883 220.763 72.4511 219.136 74.7756L218.155 76.1798L218.731 77.7982C220.606 83.0778 220.435 88.8685 218.252 94.0283C216.069 99.1881 212.031 103.343 206.936 105.673L204.618 106.739L205.042 109.252C206.47 117.882 203.885 127.307 197.902 135.113C192.961 141.586 186.1 146.329 178.3 148.665C178.259 148.673 178.217 148.674 178.176 148.67ZM173.63 114.088C173.676 114.082 173.723 114.082 173.768 114.088C173.834 114.109 173.894 114.143 173.945 114.189C173.996 114.235 174.036 114.292 174.063 114.355L175.829 118.458C178.866 125.517 181.803 136.208 178.862 147.461C186.134 145.096 192.514 140.573 197.154 134.495C202.971 126.879 205.503 117.739 204.104 109.371L203.628 106.515C203.61 106.412 203.626 106.306 203.674 106.213C203.722 106.12 203.8 106.046 203.894 106.001L206.541 104.787C211.41 102.555 215.268 98.5819 217.355 93.6487C219.441 88.7156 219.607 83.1801 217.817 78.1314L217.16 76.2845C217.135 76.2126 217.128 76.1358 217.139 76.0604C217.149 75.985 217.178 75.9133 217.222 75.8513L218.341 74.2425C219.886 72.0363 220.911 69.5088 221.339 66.8497C221.768 64.1906 221.588 61.469 220.814 58.8893C220.04 56.3095 218.691 53.9387 216.87 51.9547C215.048 49.9708 212.801 48.4252 210.297 47.4341L208.231 46.6154C208.153 46.5843 208.084 46.5332 208.033 46.4671C207.981 46.4011 207.947 46.3225 207.936 46.2394L207.626 44.045C206.824 38.228 204.524 32.7191 200.952 28.0583C197.38 23.3974 192.659 19.7444 187.25 17.4572C181.842 15.1701 175.932 14.3272 170.1 15.0111C164.268 15.6951 158.713 17.8824 153.981 21.3589L151.282 23.3247C151.189 23.3928 151.075 23.4251 150.96 23.4154C150.846 23.4058 150.739 23.355 150.659 23.2724L148.35 20.8591C146.924 19.372 145.213 18.1881 143.319 17.3784C141.424 16.5686 139.386 16.1497 137.326 16.1467C133.31 16.1465 129.456 17.7323 126.604 20.5591C123.751 23.3859 122.13 27.2248 122.094 31.2406L122.06 34.3251C122.063 34.4365 122.026 34.5451 121.956 34.6321C121.887 34.719 121.789 34.7789 121.68 34.8011L118.657 35.4104C114.367 36.2732 110.375 38.2389 107.076 41.1139C103.777 43.989 101.284 47.674 99.8426 51.8059C98.4013 55.9378 98.0614 60.374 98.8565 64.6773C99.6517 68.9805 101.554 73.0023 104.377 76.3464L106.067 78.3503C106.129 78.4241 106.167 78.5151 106.177 78.6111C106.186 78.7072 106.166 78.8038 106.119 78.8882L104.853 81.1825C104.199 82.3601 103.679 83.607 103.301 84.9001C102.431 87.9179 102.369 91.1117 103.124 94.1605C103.879 97.2094 105.423 100.006 107.601 102.269C109.779 104.532 112.515 106.182 115.532 107.052C118.55 107.923 121.744 107.984 124.793 107.229L127.287 106.61C127.379 106.587 127.475 106.592 127.564 106.625C127.653 106.657 127.731 106.715 127.787 106.791L129.296 108.871C133.77 115.051 140.436 119.289 147.931 120.718C155.426 122.147 163.183 120.659 169.618 116.559L173.392 114.179C173.462 114.128 173.544 114.096 173.63 114.088Z" fill="white"/>
<path d="M144.795 69.5865L132.038 67.5921L132.233 66.3164C132.456 64.5157 132.984 62.766 133.794 61.1423C134.505 59.857 135.447 58.7144 136.574 57.7722C137.72 56.8202 140.214 55.1923 144.057 52.8885C146.099 51.6889 147.217 50.4799 147.389 49.2471C147.502 48.7234 147.503 48.1818 147.392 47.6577C147.281 47.1336 147.061 46.6387 146.746 46.2054C146.127 45.4105 145.075 44.8964 143.6 44.6679C142.873 44.5299 142.125 44.5433 141.404 44.707C140.682 44.8708 140.002 45.1816 139.406 45.6199C138.2 46.5116 137.248 48.2443 136.55 50.8179L123.774 47.1765C124.968 42.4577 127.31 38.8734 130.8 36.4236C134.291 33.9738 139.168 33.2376 145.432 34.215C150.313 34.9734 154.094 36.6045 156.775 39.1083C160.418 42.4974 161.883 46.4863 161.169 51.0749C160.849 53.0089 160.008 54.8191 158.737 56.3109C157.41 57.9166 154.924 59.7413 151.278 61.7849C148.739 63.2288 147.089 64.4457 146.327 65.4358C145.476 66.6686 144.949 68.0962 144.795 69.5865ZM131.071 70.9241L144.737 73.0518L142.862 85.1041L129.196 82.9764L131.071 70.9241Z" fill="white"/>
<path d="M177.353 88.26L170.27 82.548L170.846 81.8388C171.621 80.8201 172.562 79.9398 173.631 79.235C174.52 78.7047 175.5 78.3417 176.52 78.164C178.612 77.9203 180.717 77.8106 182.822 77.8356C184.491 77.8356 185.602 77.4913 186.154 76.8027C186.411 76.5244 186.605 76.1943 186.723 75.8346C186.842 75.475 186.881 75.0941 186.84 74.7178C186.662 73.8812 186.17 73.145 185.464 72.6615C185.069 72.3202 184.607 72.0644 184.108 71.9104C183.609 71.7564 183.084 71.7074 182.565 71.7666C181.512 71.8808 180.317 72.5996 178.981 73.9229L172.474 67.1684C174.873 64.7123 177.57 63.3557 180.566 63.0986C183.562 62.8416 186.802 64.122 190.286 66.94C192.996 69.1327 194.724 71.4699 195.47 73.9514C196.491 77.312 195.973 80.2648 193.913 82.8098C193.037 83.8819 191.885 84.6949 190.581 85.1612C189.201 85.6658 187.036 85.8974 184.088 85.8562C182.027 85.8562 180.59 85.9895 179.771 86.3322C178.819 86.7667 177.989 87.4288 177.353 88.26ZM168.504 84.2092L176.092 90.3544L170.67 97.047L163.083 90.9161L168.504 84.2092Z" fill="white"/>
<path d="M179.333 47.0294L176.267 42.8406L176.686 42.5312C177.26 42.0858 177.903 41.7383 178.59 41.5031C179.157 41.3398 179.75 41.2833 180.337 41.3365C181.523 41.5029 182.697 41.7478 183.85 42.0695C184.773 42.3075 185.435 42.279 185.84 41.9838C186.021 41.8671 186.175 41.7134 186.292 41.533C186.409 41.3525 186.487 41.1493 186.52 40.9366C186.539 40.4477 186.368 39.9704 186.044 39.6038C185.875 39.3595 185.658 39.1523 185.406 38.9951C185.154 38.8379 184.872 38.7341 184.578 38.6899C183.983 38.6042 183.222 38.8232 182.294 39.3563L179.69 34.6963C181.184 33.7295 182.983 33.3497 184.74 33.63C186.428 33.9252 188.026 35.0993 189.533 37.1524C190.704 38.7581 191.317 40.2956 191.371 41.7649C191.447 42.6603 191.289 43.5601 190.913 44.3762C190.536 45.1922 189.954 45.8966 189.224 46.4202C188.592 46.8797 187.846 47.1594 187.068 47.2294C185.82 47.254 184.577 47.0656 183.393 46.6724C182.606 46.4043 181.778 46.2786 180.946 46.3012C180.357 46.4065 179.802 46.6568 179.333 47.0294ZM175.049 43.5166L178.333 48.0005L174.378 50.8946L171.093 46.4154L175.049 43.5166Z" fill="white"/>
<path d="M61.0898 106.42C57.0662 106.413 53.1192 105.319 49.6658 103.255C44.8344 100.399 41.4214 95.9146 40.26 90.9785C36.8916 90.7438 33.7254 89.2852 31.358 86.8775C28.9907 84.4698 27.5858 81.2794 27.408 77.9075C26.394 77.2039 25.4975 76.3444 24.7519 75.3609C22.9408 73.0531 22.046 70.1576 22.2392 67.2303C22.4325 64.303 23.7003 61.5503 25.7991 59.5006C25.0027 56.116 25.0866 52.5838 26.0428 49.2409C26.999 45.8979 28.7956 42.8557 31.2614 40.4042C33.7272 37.9527 36.7799 36.1738 40.1283 35.2371C43.4768 34.3004 47.0094 34.2371 50.3893 35.0532C51.1267 33.369 52.2897 31.9056 53.7639 30.8069C55.2381 29.7082 56.9729 29.012 58.7976 28.7868C60.6224 28.5616 62.4744 28.8151 64.1715 29.5224C65.8686 30.2296 67.3525 31.3664 68.4773 32.8208C68.9993 33.4959 69.4387 34.231 69.7863 35.0104C72.4477 34.573 75.1767 34.8249 77.713 35.742C80.2494 36.6592 82.5084 38.2109 84.2746 40.2492C86.0408 42.2875 87.2553 44.7443 87.8021 47.3854C88.3489 50.0264 88.2099 52.7635 87.3983 55.3356C89.1409 56.82 90.4215 58.7727 91.0886 60.9625C91.7556 63.1523 91.7811 65.4874 91.162 67.6912C90.543 69.895 89.3053 71.8753 87.5955 73.3974C85.8857 74.9195 83.7756 75.9197 81.5149 76.2796C80.4951 80.1381 78.2294 83.5517 75.0699 85.99C73.0813 87.5338 70.7957 88.6511 68.3559 89.2719C65.9161 89.8927 63.3745 90.0037 60.8898 89.5981C60.8422 94.22 61.9132 100.489 67.0778 104.973C67.1277 105.017 67.1649 105.074 67.1858 105.138C67.2067 105.201 67.2105 105.269 67.1968 105.335C67.1827 105.4 67.1507 105.461 67.1046 105.509C67.0584 105.558 66.9998 105.593 66.935 105.611C65.0344 106.154 63.0666 106.427 61.0898 106.42ZM45.5674 35.2246C42.5969 35.2337 39.6671 35.9171 36.9992 37.2234C34.3313 38.5297 31.9948 40.4247 30.1659 42.7655C28.337 45.1064 27.0636 47.8319 26.4415 50.7367C25.8195 53.6414 25.8651 56.6494 26.575 59.5339C26.5913 59.5985 26.5898 59.6663 26.5705 59.73C26.5512 59.7937 26.5149 59.851 26.4655 59.8957C24.4329 61.8032 23.1879 64.4024 22.9756 67.1818C22.7633 69.9612 23.5991 72.7194 25.3184 74.9135C26.0745 75.8848 26.9846 76.7258 28.0125 77.4029C28.0623 77.4351 28.1038 77.4787 28.1336 77.5299C28.1634 77.5812 28.1806 77.6388 28.1839 77.6981C28.3129 80.9631 29.6588 84.0617 31.957 86.3846C34.2552 88.7074 37.3393 90.0863 40.6027 90.2502C40.6844 90.2548 40.7622 90.2862 40.8242 90.3395C40.8862 90.3929 40.9288 90.4652 40.9454 90.5453C41.9974 95.3862 45.3246 99.7845 50.0656 102.612C54.8693 105.509 60.6238 106.389 66.0735 105.059C60.966 100.299 60.014 93.7964 60.1378 89.1316C60.1397 89.0775 60.1532 89.0245 60.1773 88.9761C60.2014 88.9276 60.2355 88.8849 60.2774 88.8507C60.3192 88.8164 60.3679 88.7915 60.4202 88.7776C60.4725 88.7636 60.5271 88.761 60.5804 88.7698C64.9685 89.5997 69.5079 88.7241 73.2726 86.3217C77.0372 83.9193 79.7434 80.171 80.839 75.8417C80.8558 75.7689 80.8945 75.703 80.9498 75.6528C81.0051 75.6026 81.0744 75.5705 81.1484 75.5608C83.3136 75.2615 85.3443 74.3368 86.9915 72.9001C88.6388 71.4634 89.8309 69.5772 90.4217 67.4728C91.0125 65.3684 90.9762 63.1373 90.3174 61.0532C89.6586 58.9691 88.4059 57.1226 86.7128 55.7402C86.6543 55.6928 86.6116 55.6287 86.5903 55.5564C86.5691 55.4842 86.5703 55.4071 86.5938 55.3356C87.4219 52.855 87.5888 50.2014 87.0779 47.6367C86.5671 45.0719 85.3962 42.6848 83.6808 40.7108C81.9655 38.7369 79.765 37.2445 77.2966 36.3808C74.8282 35.5172 72.1772 35.3123 69.6054 35.7863C69.5212 35.8026 69.4339 35.7892 69.3584 35.7484C69.2829 35.7076 69.2238 35.6419 69.1913 35.5625C68.4457 33.7538 67.1783 32.2082 65.5507 31.1226C63.9231 30.0371 62.0091 29.4609 60.0527 29.4676C58.0964 29.4742 56.1863 30.0634 54.5661 31.1599C52.9459 32.2565 51.689 33.8107 50.9557 35.6244C50.921 35.7075 50.8579 35.7755 50.7777 35.8165C50.6976 35.8574 50.6055 35.8686 50.5178 35.8481C48.9004 35.433 47.2372 35.2235 45.5674 35.2246Z" fill="#E6E6E6"/>
<path d="M47.8806 66.6401L41.3071 68.1871L41.1548 67.5302C40.9059 66.613 40.8173 65.6596 40.893 64.7123C40.9832 63.9513 41.214 63.2137 41.5736 62.537C42.3785 61.2004 43.2689 59.9173 44.2392 58.6956C44.9961 57.7103 45.3007 56.9059 45.1484 56.2728C45.1017 55.9964 44.9963 55.7332 44.8395 55.5009C44.6827 55.2686 44.4781 55.0725 44.2392 54.9257C43.6695 54.6482 43.0144 54.6022 42.4114 54.7972C42.0321 54.874 41.6728 55.0281 41.3558 55.2501C41.0389 55.472 40.7711 55.757 40.5693 56.0872C40.1599 56.7583 40.0409 57.7817 40.2075 59.1669L33.3198 59.8999C32.9173 57.623 33.3681 55.2776 34.586 53.3121C35.795 51.4366 38.0163 50.1197 41.25 49.3613C43.7632 48.7679 45.9163 48.8139 47.7093 49.4993C50.1401 50.4228 51.6347 52.0681 52.1932 54.4354C52.4254 55.4384 52.376 56.4861 52.0504 57.4628C51.7331 58.5005 50.8874 59.8745 49.5133 61.585C48.5613 62.7845 48.0012 63.6984 47.833 64.3267C47.655 65.0897 47.6714 65.8851 47.8806 66.6401ZM41.4927 69.9721L48.5375 68.3156L49.9798 74.5226L42.9588 76.1601L41.4927 69.9721Z" fill="#EBEBEB"/>
<path d="M64.6169 52.736L60.0568 51.3461L60.1949 50.8701C60.3696 50.2225 60.6528 49.6093 61.0326 49.0565C61.358 48.6235 61.7616 48.2554 62.2226 47.9712C63.1879 47.4479 64.1865 46.9884 65.2119 46.5956C66.0211 46.2783 66.4971 45.8927 66.6399 45.4389C66.7098 45.2533 66.7391 45.055 66.726 44.8571C66.7129 44.6592 66.6575 44.4665 66.5637 44.2918C66.3129 43.9211 65.9297 43.6605 65.4927 43.5635C65.2339 43.4772 64.9601 43.4449 64.6883 43.4686C64.4165 43.4924 64.1524 43.5716 63.9124 43.7015C63.2943 44.1255 62.8326 44.741 62.5987 45.4532L58.1147 43.4588C58.6812 41.9265 59.7931 40.657 61.2373 39.8935C62.6399 39.1732 64.4614 39.1557 66.7018 39.8412C68.2111 40.221 69.5692 41.0511 70.5955 42.2212C71.1471 42.8347 71.5287 43.5819 71.7024 44.3885C71.876 45.1951 71.8358 46.0331 71.5855 46.8193C71.3703 47.514 70.9686 48.1364 70.4241 48.6186C69.5175 49.3231 68.499 49.8702 67.411 50.237C66.6872 50.4767 66.0106 50.8407 65.4118 51.3128C65.0331 51.714 64.76 52.2031 64.6169 52.736ZM59.5332 52.5123L64.417 53.9974L63.108 58.31L58.2195 56.8248L59.5332 52.5123Z" fill="#EBEBEB"/>
<path d="M119 203.519C169.971 203.519 211.292 201.106 211.292 198.13C211.292 195.155 169.971 192.742 119 192.742C68.0289 192.742 26.7085 195.155 26.7085 198.13C26.7085 201.106 68.0289 203.519 119 203.519Z" fill="#F5F5F5"/>
<path d="M75.0224 117.781L74.5845 117.595C74.9287 116.84 75.1612 116.038 75.2747 115.215L75.7507 115.268C75.6314 116.137 75.3861 116.983 75.0224 117.781ZM74.8368 112.336C74.394 111.347 73.7052 110.487 72.8361 109.84C71.967 109.192 70.9466 108.778 69.8721 108.637L69.9482 108.161C71.1007 108.314 72.1948 108.76 73.1264 109.456C74.0579 110.152 74.7958 111.074 75.2699 112.136L74.8368 112.336Z" fill="#407BFF"/>
<path d="M72.3522 122.569L67.6588 124.711L67.4494 124.235C67.1284 123.588 66.9207 122.891 66.8353 122.174C66.7901 121.59 66.853 121.003 67.021 120.441C67.4273 119.324 67.9042 118.233 68.449 117.176C68.8678 116.329 68.9742 115.68 68.7679 115.229C68.6914 115.03 68.5732 114.849 68.4214 114.699C68.2696 114.549 68.0875 114.433 67.8873 114.358C67.4199 114.239 66.9249 114.302 66.5021 114.534C66.2305 114.65 65.9852 114.82 65.7814 115.033C65.5776 115.247 65.4196 115.5 65.3169 115.777C65.1106 116.332 65.1741 117.116 65.5073 118.128L60.4522 119.708C59.82 118.061 59.82 116.239 60.4522 114.591C61.0868 113.005 62.5497 111.693 64.8409 110.655C66.6306 109.836 68.2491 109.555 69.6913 109.798C70.5751 109.905 71.4158 110.24 72.131 110.77C72.8462 111.299 73.4113 112.006 73.7706 112.821C74.092 113.537 74.2105 114.327 74.1134 115.106C73.8834 116.322 73.4489 117.49 72.8282 118.561C72.4108 119.271 72.1238 120.05 71.9809 120.86C71.9609 121.452 72.0885 122.039 72.3522 122.569ZM68.0682 126.015L73.0852 123.759L75.0987 128.181L70.0816 130.423L68.0682 126.015Z" fill="#407BFF"/>
<path d="M60.7566 133.151L58.3766 136.388L58.0719 136.136C57.6078 135.814 57.2007 135.416 56.8677 134.96C56.6148 134.579 56.4355 134.155 56.3393 133.708C56.1855 132.793 56.0949 131.869 56.068 130.942C56.0299 130.205 55.8538 129.724 55.5444 129.514C55.4143 129.404 55.2618 129.324 55.0973 129.278C54.9329 129.233 54.7606 129.224 54.5924 129.253C54.2281 129.348 53.9145 129.58 53.7165 129.9C53.5748 130.081 53.4717 130.29 53.4135 130.512C53.3554 130.735 53.3435 130.967 53.3786 131.195C53.5439 131.803 53.9032 132.341 54.402 132.727L51.546 135.731C50.4885 134.849 49.7922 133.609 49.5896 132.247C49.4151 130.933 49.9133 129.481 51.0843 127.891C51.8105 126.802 52.8492 125.957 54.064 125.468C54.7066 125.203 55.4073 125.11 56.0969 125.199C56.7865 125.287 57.441 125.554 57.9958 125.973C58.4883 126.338 58.8704 126.832 59.1001 127.401C59.4056 128.322 59.5537 129.287 59.538 130.257C59.5216 130.904 59.6216 131.549 59.8331 132.161C60.0534 132.563 60.3708 132.903 60.7566 133.151ZM59.1525 137.13L61.7038 133.665L64.7597 135.917L62.2084 139.382L59.1525 137.13Z" fill="#407BFF"/>
<path d="M111.427 196.416C111.034 196.417 110.648 196.309 110.313 196.105C109.977 195.901 109.704 195.609 109.523 195.26C107.619 191.566 105.206 187.23 100.883 182.536C100.635 182.267 100.46 181.938 100.376 181.58C100.293 181.223 100.304 180.851 100.407 180.499C102.012 174.925 104.534 167.304 104.558 167.228C104.639 166.953 104.774 166.696 104.956 166.474C105.138 166.252 105.362 166.069 105.616 165.936C105.87 165.803 106.149 165.722 106.435 165.699C106.721 165.675 107.008 165.709 107.281 165.8C107.553 165.89 107.805 166.034 108.02 166.223C108.236 166.413 108.411 166.644 108.535 166.902C108.66 167.161 108.731 167.442 108.744 167.728C108.758 168.015 108.713 168.301 108.614 168.57C108.59 168.642 106.415 175.206 104.839 180.542C108.198 184.416 111.048 188.703 113.321 193.299C113.488 193.625 113.569 193.989 113.555 194.355C113.541 194.721 113.434 195.078 113.243 195.391C113.052 195.704 112.783 195.962 112.464 196.142C112.144 196.321 111.784 196.416 111.417 196.416H111.427Z" fill="#407BFF"/>
<path d="M114.983 198.13H98.4229L107.2 193.151L114.554 193.437L114.983 198.13Z" fill="#263238"/>
<path d="M113.402 178.069C120.939 175.712 125.466 168.737 123.513 162.49C121.56 156.242 113.866 153.087 106.329 155.443C98.7914 157.8 94.2645 164.775 96.2176 171.022C98.1707 177.27 105.864 180.425 113.402 178.069Z" fill="#263238"/>
<path d="M72.1854 158.984C71.6925 158.982 71.2155 158.81 70.8351 158.497C70.4546 158.183 70.1942 157.748 70.0979 157.265C70.0015 156.781 70.0752 156.28 70.3064 155.844C70.5377 155.409 70.9122 155.067 71.3667 154.876C71.7366 154.722 72.0614 154.476 72.3111 154.162C72.5607 153.849 72.727 153.477 72.7947 153.082C72.8373 152.617 73.0313 152.179 73.3469 151.835C73.6625 151.491 74.0821 151.26 74.5416 151.178C75.0717 151.07 75.596 150.935 76.1124 150.773C79.0065 149.931 82.5907 148.869 93.8719 152.039C105.001 145.818 105.129 134.147 105.129 133.642C105.129 133.076 105.353 132.534 105.752 132.132C106.15 131.731 106.691 131.504 107.257 131.5C107.821 131.5 108.361 131.723 108.762 132.119C109.162 132.516 109.389 133.055 109.394 133.618C109.394 134.242 109.328 148.893 95.1143 156.228C94.6299 156.479 94.0672 156.534 93.5435 156.381C82.7859 153.277 79.7395 154.162 77.3262 154.872L76.6693 155.062C76.3517 155.903 75.8652 156.67 75.2398 157.316C74.6143 157.962 73.8632 158.473 73.0327 158.818C72.7644 158.93 72.4762 158.987 72.1854 158.984Z" fill="#263238"/>
<path d="M97.1424 143.7C93.0916 127.601 82.3007 86.0751 116.882 83.538C147.908 81.258 156.419 122.57 158.489 136.85C159.526 144.076 160.089 151.361 160.174 158.66C160.214 162.353 158.963 165.943 156.637 168.811C154.311 171.678 151.057 173.644 147.437 174.368C130.534 177.805 114.54 178.291 103.764 174.04C102.348 173.469 101.155 172.455 100.364 171.15C99.5717 169.845 99.2232 168.319 99.3701 166.8C99.7842 162.192 99.7937 154.224 97.1424 143.7Z" fill="#407BFF"/>
<path opacity="0.1" d="M158.508 136.86C156.557 123.379 148.884 85.9276 122.018 83.5476C120.486 83.3922 118.941 83.694 117.58 84.4149C116.219 85.1357 115.101 86.2434 114.369 87.5984C113.169 89.9212 113.207 92.7344 115.002 95.519C120.904 104.72 135.027 136.455 132.895 153.748C131.943 161.616 126.988 167.9 131.281 176.744C136.708 176.269 142.103 175.474 147.436 174.364C151.057 173.64 154.311 171.674 156.637 168.806C158.963 165.938 160.214 162.348 160.174 158.656C160.094 151.362 159.538 144.081 158.508 136.86Z" fill="black"/>
<path d="M153.862 158.884C153.806 158.884 153.753 158.862 153.713 158.823C153.672 158.784 153.649 158.731 153.648 158.675C153.567 151.385 153.006 144.109 151.968 136.893C146.827 101.355 132.99 83.3859 111.936 84.9377C111.908 84.9396 111.88 84.936 111.853 84.927C111.826 84.9179 111.802 84.9037 111.78 84.8852C111.759 84.8666 111.742 84.844 111.729 84.8187C111.717 84.7934 111.71 84.7659 111.708 84.7377C111.705 84.6812 111.724 84.6258 111.762 84.5832C111.799 84.5406 111.851 84.5141 111.908 84.5093C133.209 82.9385 147.213 101.036 152.368 136.831C153.405 144.066 153.968 151.361 154.053 158.67C154.053 158.727 154.03 158.781 153.99 158.822C153.95 158.862 153.895 158.884 153.839 158.884H153.862Z" fill="#263238"/>
<path d="M153.539 179.202C161.077 176.846 165.604 169.871 163.651 163.623C161.698 157.376 154.004 154.221 146.467 156.577C138.929 158.934 134.402 165.909 136.355 172.156C138.308 178.404 146.002 181.559 153.539 179.202Z" fill="#263238"/>
<path d="M154.843 196.416C154.45 196.417 154.064 196.31 153.728 196.106C153.392 195.902 153.119 195.609 152.939 195.26C151.035 191.566 148.622 187.23 144.295 182.536C144.048 182.266 143.874 181.936 143.791 181.58C143.708 181.223 143.717 180.851 143.819 180.499C145.428 174.925 147.946 167.304 147.974 167.228C148.062 166.962 148.202 166.716 148.385 166.504C148.568 166.292 148.792 166.118 149.042 165.993C149.292 165.867 149.565 165.792 149.845 165.771C150.124 165.751 150.405 165.786 150.671 165.874C150.937 165.962 151.183 166.102 151.395 166.285C151.607 166.468 151.781 166.691 151.906 166.942C152.032 167.192 152.107 167.465 152.128 167.744C152.148 168.024 152.113 168.305 152.025 168.57C152.001 168.642 149.831 175.206 148.255 180.542C151.614 184.415 154.463 188.702 156.733 193.299C156.9 193.625 156.98 193.989 156.966 194.355C156.952 194.721 156.845 195.078 156.654 195.391C156.463 195.704 156.195 195.962 155.875 196.142C155.555 196.321 155.195 196.416 154.829 196.416H154.843Z" fill="#407BFF"/>
<path d="M150.359 131.333C149.882 131.333 149.418 131.173 149.042 130.879C148.665 130.585 148.399 130.174 148.284 129.71C148.169 129.247 148.212 128.759 148.407 128.323C148.602 127.887 148.937 127.529 149.359 127.306C149.769 127.087 159.065 122.008 161.674 109.803C155.486 107.214 144.338 101.364 141.901 98.4222C141.661 98.1377 141.497 97.7971 141.425 97.4321C141.143 95.6744 141.307 93.8742 141.901 92.1961L140.777 90.0255C140.517 89.5206 140.468 88.933 140.642 88.392C140.815 87.8511 141.196 87.401 141.701 87.141C142.206 86.8809 142.793 86.8321 143.334 87.0053C143.875 87.1785 144.325 87.5595 144.585 88.0644L146.199 91.187C146.373 91.5138 146.458 91.8803 146.446 92.2502C146.434 92.6201 146.326 92.9805 146.132 93.2957C145.697 94.1656 145.512 95.1398 145.599 96.1088C148.346 98.5888 159.403 104.458 164.844 106.471C165.305 106.642 165.693 106.967 165.942 107.392C166.191 107.816 166.286 108.313 166.21 108.799C163.797 124.398 151.863 130.824 151.359 131.09C151.05 131.251 150.707 131.335 150.359 131.333Z" fill="#263238"/>
<path d="M143.547 98.1272C143.355 98.1263 143.167 98.0738 143.002 97.9751C142.837 97.8765 142.702 97.7353 142.611 97.5664C142.519 97.3975 142.475 97.2072 142.482 97.0152C142.49 96.8233 142.548 96.6369 142.653 96.4755C142.729 96.3613 144.49 93.7004 147.175 92.9817C147.31 92.9454 147.451 92.9362 147.59 92.9544C147.729 92.9727 147.863 93.0182 147.984 93.0883C148.105 93.1583 148.212 93.2516 148.297 93.3628C148.382 93.4739 148.445 93.6008 148.481 93.7361C148.517 93.8714 148.527 94.0126 148.508 94.1515C148.49 94.2904 148.445 94.4243 148.375 94.5457C148.305 94.667 148.211 94.7734 148.1 94.8586C147.989 94.9439 147.862 95.0065 147.727 95.0427C145.856 95.5473 144.452 97.6227 144.442 97.6417C144.345 97.7908 144.213 97.9134 144.057 97.9982C143.9 98.083 143.725 98.1273 143.547 98.1272Z" fill="#263238"/>
<path d="M158.399 198.13H141.839L150.616 193.151L157.97 193.437L158.399 198.13Z" fill="#263238"/>
<path d="M123.721 134.353C129.985 133.798 134.658 128.778 134.159 123.14C133.66 117.502 128.177 113.382 121.913 113.936C115.65 114.491 110.976 119.511 111.476 125.149C111.975 130.787 117.457 134.908 123.721 134.353Z" fill="white"/>
<path d="M121.593 130.637C123.254 130.163 123.903 127.328 123.041 124.305C122.18 121.281 120.135 119.213 118.474 119.686C116.813 120.159 116.165 122.994 117.026 126.018C117.887 129.042 119.932 131.11 121.593 130.637Z" fill="#263238"/>
<path d="M109.861 126.074C117.049 125.15 131.281 121.09 133.628 119.453C131.781 114.045 123.156 109.418 115.483 112.027C108.528 114.374 109.861 126.074 109.861 126.074Z" fill="#263238"/>
<path d="M111.256 129.548C120.181 127.853 131.781 125.007 135.099 123.184C134.894 129 133.195 134.898 124.094 136.892C116.649 138.516 111.256 129.548 111.256 129.548Z" fill="#263238"/>
<path d="M103.904 135.14C107.131 133.005 107.557 127.963 104.854 123.878C102.152 119.793 97.3447 118.213 94.1174 120.349C90.8901 122.484 90.4647 127.526 93.1671 131.61C95.8696 135.695 100.677 137.275 103.904 135.14Z" fill="white"/>
<path d="M99.1698 127.892C99.7077 130.443 99.2412 132.571 98.1226 132.652C97.004 132.733 95.6617 130.719 95.1191 128.168C94.5764 125.617 95.0477 123.494 96.1615 123.408C97.2754 123.322 98.6272 125.34 99.1698 127.892Z" fill="#263238"/>
<path d="M90.3212 126.916C95.1431 127.483 104.72 126.849 106.31 125.964C105.134 121.38 99.4319 116.144 94.2482 116.811C89.5739 117.41 90.3212 126.916 90.3212 126.916Z" fill="#263238"/>
<path d="M91.2163 129.92C97.2091 130.191 105.02 130.039 107.248 129.196C107.043 133.771 105.844 138.131 99.7224 138.059C94.7244 138.002 91.2163 129.92 91.2163 129.92Z" fill="#263238"/>
<path d="M125.707 109.147C120.26 109.177 114.933 107.55 110.432 104.482C109.981 104.141 109.684 103.634 109.606 103.073C109.528 102.513 109.677 101.944 110.018 101.493C110.36 101.042 110.866 100.744 111.427 100.667C111.988 100.589 112.556 100.737 113.007 101.079C118.045 104.364 124.157 105.577 130.067 104.463C130.343 104.411 130.626 104.413 130.9 104.471C131.174 104.528 131.435 104.638 131.666 104.796C131.898 104.954 132.096 105.156 132.25 105.39C132.403 105.625 132.509 105.887 132.562 106.162C132.614 106.438 132.611 106.721 132.554 106.995C132.497 107.269 132.386 107.53 132.228 107.761C132.071 107.993 131.869 108.191 131.634 108.345C131.4 108.499 131.138 108.604 130.862 108.657C129.163 108.98 127.437 109.144 125.707 109.147Z" fill="#263238"/>
<path d="M87.5272 105.467C87.1855 105.466 86.8491 105.382 86.5461 105.224C86.2432 105.066 85.9826 104.837 85.7859 104.558C85.5893 104.278 85.4625 103.956 85.4159 103.617C85.3694 103.278 85.4046 102.934 85.5185 102.611C86.6466 99.4602 88.5268 97.4182 91.0972 96.5328C95.7525 94.9287 100.77 98.0465 100.984 98.1798C101.451 98.487 101.78 98.9653 101.899 99.512C102.017 100.059 101.917 100.63 101.619 101.104C101.321 101.577 100.85 101.915 100.305 102.045C99.7613 102.175 99.1879 102.086 98.7085 101.797C97.7565 101.193 94.7243 99.7934 92.4729 100.574C91.1781 101.026 90.2166 102.164 89.5359 104.058C89.3864 104.471 89.1133 104.828 88.7539 105.08C88.3945 105.332 87.9662 105.467 87.5272 105.467Z" fill="#263238"/>
<path d="M104.353 141.491C104.294 141.491 104.234 141.481 104.177 141.462C104.016 141.417 103.879 141.309 103.797 141.163C103.715 141.016 103.694 140.843 103.739 140.682C103.929 140.167 104.218 139.694 104.59 139.291C104.963 138.889 105.411 138.564 105.91 138.335C108.357 137.074 112.098 137.335 117.006 139.111C117.085 139.139 117.158 139.184 117.22 139.241C117.282 139.298 117.332 139.366 117.368 139.443C117.403 139.52 117.423 139.602 117.426 139.687C117.43 139.771 117.416 139.855 117.386 139.934C117.358 140.013 117.315 140.086 117.258 140.148C117.201 140.211 117.133 140.261 117.057 140.296C116.981 140.332 116.898 140.352 116.814 140.355C116.73 140.358 116.646 140.345 116.568 140.315C110.937 138.278 108 138.716 106.572 139.449C105.859 139.751 105.292 140.32 104.991 141.034C104.95 141.17 104.866 141.288 104.75 141.371C104.635 141.454 104.495 141.496 104.353 141.491Z" fill="#263238"/>
<path d="M84.1952 139.145C76.7471 139.806 69.5032 141.934 62.8799 145.404C66.5546 144.709 79.7065 160.983 83.0861 173.531C89.3264 171.222 96.5997 169.647 104.354 168.414C99.6556 155.481 91.0638 140.825 84.1952 139.145Z" fill="#407BFF"/>
<path opacity="0.6" d="M84.1952 139.145C76.7471 139.806 69.5032 141.934 62.8799 145.404C66.5546 144.709 79.7065 160.983 83.0861 173.531C89.3264 171.222 96.5997 169.647 104.354 168.414C99.6556 155.481 91.0638 140.825 84.1952 139.145Z" fill="white"/>
<path d="M84.1951 139.144C76.065 138.225 62.8655 145.032 62.8655 145.032C60.5283 146.522 61.1614 149.316 62.4371 150.501C63.6604 148.745 77.3026 144.175 82.4291 143.561C79.8825 141.2 82.253 139.468 84.1951 139.144Z" fill="#407BFF"/>
<path opacity="0.2" d="M84.1951 139.144C76.065 138.225 62.8655 145.032 62.8655 145.032C60.5283 146.522 61.1614 149.316 62.4371 150.501C63.6604 148.745 77.3026 144.175 82.4291 143.561C79.8825 141.2 82.253 139.468 84.1951 139.144Z" fill="white"/>
<path d="M72.1903 158.984C71.8359 158.985 71.4866 158.899 71.1736 158.733C70.8605 158.567 70.5933 158.326 70.3958 158.032C68.8488 155.652 69.815 152.039 70.0245 151.334C70.2029 150.812 70.5766 150.379 71.0673 150.126C71.558 149.872 72.1276 149.819 72.6569 149.977C73.1861 150.134 73.6338 150.49 73.9062 150.971C74.1786 151.451 74.2545 152.018 74.1181 152.553C73.7706 153.748 73.6992 155.276 73.9753 155.695C74.2843 156.169 74.3922 156.747 74.2753 157.302C74.1583 157.856 73.8262 158.341 73.3517 158.651C73.0059 158.874 72.6018 158.99 72.1903 158.984Z" fill="#263238"/>
</svg>
