<svg width="40" height="40" viewBox="0 0 40 40" fill="none" xmlns="http://www.w3.org/2000/svg">
<circle cx="20" cy="20" r="20" fill="yellow"/>
<path d="M22.4827 31.1724H17.5172C16.6044 31.1724 15.8621 30.4301 15.8621 29.5172V19.3586C15.8617 19.1646 15.7938 18.9768 15.6701 18.8273L14.3683 17.2665C13.9971 16.8198 13.7936 16.2575 13.7931 15.6767V13.7931C13.7931 13.5736 13.8803 13.3631 14.0355 13.2079C14.1907 13.0527 14.4012 12.9655 14.6207 12.9655H25.3793C25.5988 12.9655 25.8093 13.0527 25.9645 13.2079C26.1197 13.3631 26.2069 13.5736 26.2069 13.7931V15.6767C26.2069 16.256 26.0025 16.8204 25.6317 17.2656L24.3291 18.8281C24.2054 18.9772 24.1377 19.1649 24.1379 19.3586V29.5172C24.1379 30.4301 23.3956 31.1724 22.4827 31.1724ZM15.4483 14.6207V15.6767C15.4483 15.8703 15.517 16.0582 15.6403 16.2072L16.9421 17.768C17.3136 18.2141 17.5172 18.7785 17.5172 19.3586V29.5172H22.4827V19.3586C22.4827 18.7785 22.6872 18.2141 23.0579 17.7688L24.3605 16.2063C24.483 16.0582 24.5517 15.8703 24.5517 15.6767V14.6207H15.4483ZM26.2069 11.3103H24.5517V10.4827H15.4483V11.3103H13.7931V10.4827C13.7931 9.56992 14.5354 8.82758 15.4483 8.82758H24.5517C25.4645 8.82758 26.2069 9.56992 26.2069 10.4827V11.3103Z" fill="black"/>
<path d="M20 17.931C19.561 17.931 19.14 18.1054 18.8296 18.4158C18.5192 18.7262 18.3448 19.1472 18.3448 19.5862V21.2414C18.3448 21.6804 18.5192 22.1014 18.8296 22.4118C19.14 22.7222 19.561 22.8965 20 22.8965C20.439 22.8965 20.86 22.7222 21.1704 22.4118C21.4808 22.1014 21.6552 21.6804 21.6552 21.2414V19.5862C21.6552 19.1472 21.4808 18.7262 21.1704 18.4158C20.86 18.1054 20.439 17.931 20 17.931ZM20 22.0549C19.7805 22.0549 19.57 21.9677 19.4148 21.8125C19.2596 21.6573 19.1724 21.4468 19.1724 21.2273C19.1724 21.0078 19.2596 20.7973 19.4148 20.6421C19.57 20.4869 19.7805 20.3997 20 20.3997C20.2195 20.3997 20.43 20.4869 20.5852 20.6421C20.7404 20.7973 20.8276 21.0078 20.8276 21.2273C20.8276 21.4468 20.7404 21.6573 20.5852 21.8125C20.43 21.9677 20.2195 22.0549 20 22.0549Z" fill="black"/>
</svg>
