<svg width="32" height="32" viewBox="0 0 32 32" fill="none" xmlns="http://www.w3.org/2000/svg">
<g clip-path="url(#clip0_974_74743)">
<path d="M16 0C12.8355 0 9.74207 0.938384 7.11088 2.69649C4.4797 4.45459 2.42894 6.95345 1.21793 9.87707C0.00693258 12.8007 -0.309921 16.0177 0.307443 19.1214C0.924806 22.2251 2.44866 25.0761 4.6863 27.3137C6.92394 29.5514 9.77487 31.0752 12.8786 31.6926C15.9823 32.3099 19.1993 31.9931 22.1229 30.7821C25.0466 29.5711 27.5454 27.5203 29.3035 24.8891C31.0616 22.2579 32 19.1645 32 16C31.9954 11.7579 30.3082 7.69095 27.3087 4.69136C24.3091 1.69177 20.2421 0.00458811 16 0V0ZM16 29.3333C13.3629 29.3333 10.7851 28.5513 8.5924 27.0863C6.39975 25.6212 4.69078 23.5388 3.68161 21.1024C2.67245 18.6661 2.4084 15.9852 2.92287 13.3988C3.43734 10.8124 4.70722 8.43661 6.57192 6.57191C8.43662 4.70721 10.8124 3.43733 13.3988 2.92286C15.9852 2.40839 18.6661 2.67244 21.1025 3.68161C23.5388 4.69078 25.6212 6.39974 27.0863 8.5924C28.5514 10.7851 29.3333 13.3629 29.3333 16C29.3295 19.535 27.9235 22.9242 25.4238 25.4238C22.9242 27.9235 19.535 29.3295 16 29.3333Z" fill="#4F4F4F"/>
<path d="M16.9562 6.75023C16.1873 6.61014 15.397 6.64074 14.6413 6.83988C13.8855 7.03903 13.1827 7.40183 12.5827 7.90264C11.9827 8.40344 11.5001 9.02999 11.169 9.73796C10.8379 10.4459 10.6665 11.218 10.6669 11.9996C10.6669 12.3532 10.8073 12.6923 11.0574 12.9424C11.3074 13.1924 11.6466 13.3329 12.0002 13.3329C12.3538 13.3329 12.693 13.1924 12.943 12.9424C13.1931 12.6923 13.3335 12.3532 13.3335 11.9996C13.3332 11.6073 13.4194 11.2197 13.5861 10.8646C13.7527 10.5094 13.9956 10.1954 14.2976 9.94494C14.5995 9.69446 14.9529 9.51368 15.3328 9.41549C15.7126 9.3173 16.1094 9.30412 16.4949 9.3769C17.0216 9.47914 17.5059 9.73608 17.8859 10.1149C18.2658 10.4937 18.5243 10.9772 18.6282 11.5036C18.7331 12.0561 18.6607 12.6277 18.4212 13.1365C18.1817 13.6454 17.7875 14.0656 17.2949 14.3369C16.4791 14.8095 15.805 15.4922 15.3428 16.314C14.8805 17.1357 14.6471 18.0663 14.6669 19.0089V19.9996C14.6669 20.3532 14.8073 20.6923 15.0574 20.9424C15.3074 21.1924 15.6466 21.3329 16.0002 21.3329C16.3538 21.3329 16.693 21.1924 16.943 20.9424C17.193 20.6923 17.3335 20.3532 17.3335 19.9996V19.0089C17.3168 18.5449 17.4226 18.0847 17.6403 17.6746C17.858 17.2645 18.1798 16.919 18.5735 16.6729C19.5395 16.1423 20.3175 15.3255 20.8003 14.3348C21.2831 13.344 21.4472 12.228 21.2699 11.1403C21.0926 10.0525 20.5826 9.04635 19.8102 8.26022C19.0377 7.47409 18.0407 6.94658 16.9562 6.75023Z" fill="#4F4F4F"/>
<path d="M17.3336 23.9996C17.3336 23.2632 16.7366 22.6662 16.0002 22.6662C15.2638 22.6662 14.6669 23.2632 14.6669 23.9996C14.6669 24.736 15.2638 25.3329 16.0002 25.3329C16.7366 25.3329 17.3336 24.736 17.3336 23.9996Z" fill="#4F4F4F"/>
</g>
<defs>
<clipPath id="clip0_974_74743">
<rect width="32" height="32" fill="white"/>
</clipPath>
</defs>
</svg>
