<svg width="24" height="24" viewBox="0 0 24 24" fill="none" xmlns="http://www.w3.org/2000/svg">
<path d="M5.09202 21.782L5.43251 21.1138L5.09202 21.782ZM4.21799 20.908L4.88624 20.5675L4.21799 20.908ZM19.782 20.908L19.1138 20.5675L19.782 20.908ZM18.908 21.782L18.5675 21.1138L18.908 21.782ZM18.908 2.21799L18.5675 2.88624L18.908 2.21799ZM19.782 3.09202L19.1138 3.43251L19.782 3.09202ZM5.09202 2.21799L5.43251 2.88624L5.09202 2.21799ZM4.21799 3.09202L4.88624 3.43251L4.21799 3.09202ZM8 5.25C7.58579 5.25 7.25 5.58579 7.25 6C7.25 6.41421 7.58579 6.75 8 6.75V5.25ZM16 6.75C16.4142 6.75 16.75 6.41421 16.75 6C16.75 5.58579 16.4142 5.25 16 5.25V6.75ZM8 9.25C7.58579 9.25 7.25 9.58579 7.25 10C7.25 10.4142 7.58579 10.75 8 10.75V9.25ZM16 10.75C16.4142 10.75 16.75 10.4142 16.75 10C16.75 9.58579 16.4142 9.25 16 9.25V10.75ZM15.9692 14.499L16.7134 14.5916L16.7134 14.5916L15.9692 14.499ZM8.03082 14.499L8.77508 14.4064L8.77508 14.4064L8.03082 14.499ZM7.2 2.75H16.8V1.25H7.2V2.75ZM19.25 5.2V18.8H20.75V5.2H19.25ZM16.8 21.25H7.2V22.75H16.8V21.25ZM4.75 18.8V5.2H3.25V18.8H4.75ZM7.2 21.25C6.62757 21.25 6.24336 21.2494 5.94748 21.2252C5.66035 21.2018 5.52307 21.1599 5.43251 21.1138L4.75153 22.4503C5.08879 22.6221 5.44544 22.6892 5.82533 22.7203C6.19646 22.7506 6.65232 22.75 7.2 22.75V21.25ZM3.25 18.8C3.25 19.3477 3.24942 19.8035 3.27974 20.1747C3.31078 20.5546 3.37789 20.9112 3.54973 21.2485L4.88624 20.5675C4.8401 20.4769 4.79822 20.3396 4.77476 20.0525C4.75058 19.7566 4.75 19.3724 4.75 18.8H3.25ZM5.43251 21.1138C5.19731 20.9939 5.00608 20.8027 4.88624 20.5675L3.54973 21.2485C3.81338 21.7659 4.23408 22.1866 4.75153 22.4503L5.43251 21.1138ZM19.25 18.8C19.25 19.3724 19.2494 19.7566 19.2252 20.0525C19.2018 20.3396 19.1599 20.4769 19.1138 20.5675L20.4503 21.2485C20.6221 20.9112 20.6892 20.5546 20.7203 20.1747C20.7506 19.8035 20.75 19.3477 20.75 18.8H19.25ZM16.8 22.75C17.3477 22.75 17.8035 22.7506 18.1747 22.7203C18.5546 22.6892 18.9112 22.6221 19.2485 22.4503L18.5675 21.1138C18.4769 21.1599 18.3396 21.2018 18.0525 21.2252C17.7566 21.2494 17.3724 21.25 16.8 21.25V22.75ZM19.1138 20.5675C18.9939 20.8027 18.8027 20.9939 18.5675 21.1138L19.2485 22.4503C19.7659 22.1866 20.1866 21.7659 20.4503 21.2485L19.1138 20.5675ZM16.8 2.75C17.3724 2.75 17.7566 2.75058 18.0525 2.77476C18.3396 2.79822 18.4769 2.8401 18.5675 2.88624L19.2485 1.54973C18.9112 1.37789 18.5546 1.31078 18.1747 1.27974C17.8035 1.24942 17.3477 1.25 16.8 1.25V2.75ZM20.75 5.2C20.75 4.65232 20.7506 4.19646 20.7203 3.82533C20.6892 3.44544 20.6221 3.08879 20.4503 2.75153L19.1138 3.43251C19.1599 3.52307 19.2018 3.66035 19.2252 3.94748C19.2494 4.24336 19.25 4.62757 19.25 5.2H20.75ZM18.5675 2.88624C18.8027 3.00608 18.9939 3.19731 19.1138 3.43251L20.4503 2.75153C20.1866 2.23408 19.7659 1.81338 19.2485 1.54973L18.5675 2.88624ZM7.2 1.25C6.65232 1.25 6.19646 1.24942 5.82533 1.27974C5.44545 1.31078 5.08879 1.37789 4.75153 1.54973L5.43251 2.88624C5.52307 2.8401 5.66035 2.79822 5.94748 2.77476C6.24336 2.75058 6.62757 2.75 7.2 2.75V1.25ZM4.75 5.2C4.75 4.62757 4.75058 4.24336 4.77476 3.94748C4.79822 3.66035 4.8401 3.52307 4.88624 3.43251L3.54973 2.75153C3.37789 3.08879 3.31078 3.44545 3.27974 3.82533C3.24942 4.19646 3.25 4.65232 3.25 5.2H4.75ZM4.75153 1.54973C4.23408 1.81338 3.81338 2.23408 3.54973 2.75153L4.88624 3.43251C5.00608 3.19731 5.19731 3.00608 5.43251 2.88624L4.75153 1.54973ZM8 6.75H16V5.25H8V6.75ZM8 10.75H16V9.25H8V10.75ZM15.2249 14.4064C15.0255 16.0092 13.6571 17.25 12 17.25V18.75C14.4232 18.75 16.4217 16.9361 16.7134 14.5916L15.2249 14.4064ZM12 17.25C10.3429 17.25 8.97454 16.0092 8.77508 14.4064L7.28656 14.5916C7.57832 16.9361 9.57676 18.75 12 18.75V17.25ZM16.5 14.75H20V13.25H16.5V14.75ZM7.5 13.25H4V14.75H7.5V13.25ZM8.77508 14.4064C8.70156 13.8156 8.21091 13.25 7.5 13.25V14.75C7.42665 14.75 7.36863 14.7185 7.33579 14.6868C7.30564 14.6578 7.29064 14.6244 7.28656 14.5916L8.77508 14.4064ZM16.7134 14.5916C16.7094 14.6244 16.6944 14.6578 16.6642 14.6868C16.6314 14.7185 16.5733 14.75 16.5 14.75V13.25C15.7891 13.25 15.2984 13.8156 15.2249 14.4064L16.7134 14.5916Z" fill="#333333"/>
</svg>
