<svg width="32" height="32" viewBox="0 0 32 32" fill="none" xmlns="http://www.w3.org/2000/svg">
<rect width="32" height="32" rx="8" fill="#EB8A8A"/>
<g clip-path="url(#clip0_767_60657)">
<path d="M21 9V17.61L23 19.61V7C23 5.9 22.1 5 21 5H11C10.29 5 9.66999 5.37 9.31999 5.93L12.39 9H21ZM5.48999 7.76L8.99999 11.27V25C8.99999 26.1 9.89999 27 11 27H21C22.02 27 22.85 26.23 22.98 25.25L24.7 26.97L26.11 25.56L6.89999 6.35L5.48999 7.76ZM11 13.27L20.73 23H11V13.27Z" fill="white"/>
</g>
<defs>
<clipPath id="clip0_767_60657">
<rect width="24" height="24" fill="white" transform="translate(4 4)"/>
</clipPath>
</defs>
</svg>
