<svg width="24" height="24" viewBox="0 0 24 24" fill="none" xmlns="http://www.w3.org/2000/svg">
<path d="M8 13.25C7.58579 13.25 7.25 13.5858 7.25 14C7.25 14.4142 7.58579 14.75 8 14.75V13.25ZM10 14.75C10.4142 14.75 10.75 14.4142 10.75 14C10.75 13.5858 10.4142 13.25 10 13.25V14.75ZM8 9.25C7.58579 9.25 7.25 9.58579 7.25 10C7.25 10.4142 7.58579 10.75 8 10.75V9.25ZM14 10.75C14.4142 10.75 14.75 10.4142 14.75 10C14.75 9.58579 14.4142 9.25 14 9.25V10.75ZM8 5.25C7.58579 5.25 7.25 5.58579 7.25 6C7.25 6.41421 7.58579 6.75 8 6.75V5.25ZM14 6.75C14.4142 6.75 14.75 6.41421 14.75 6C14.75 5.58579 14.4142 5.25 14 5.25V6.75ZM17.25 8C17.25 8.41421 17.5858 8.75 18 8.75C18.4142 8.75 18.75 8.41421 18.75 8H17.25ZM9 20.75C9.41421 20.75 9.75 20.4142 9.75 20C9.75 19.5858 9.41421 19.25 9 19.25V20.75ZM5.07805 19.7748L5.42378 19.1093L5.42378 19.1093L5.07805 19.7748ZM4.22517 18.9219L3.55961 19.2677L3.55961 19.2677L4.22517 18.9219ZM16.9219 2.22517L16.5762 2.89073L16.5762 2.89073L16.9219 2.22517ZM17.7748 3.07805L17.1093 3.42378L17.1093 3.42378L17.7748 3.07805ZM5.07805 2.22517L4.73232 1.55961L4.73232 1.55961L5.07805 2.22517ZM4.22517 3.07805L3.55961 2.73232L3.55961 2.73232L4.22517 3.07805ZM8 14.75H10V13.25H8V14.75ZM8 10.75H14V9.25H8V10.75ZM8 6.75H14V5.25H8V6.75ZM7.22 2.75H14.78V1.25H7.22V2.75ZM17.25 5.22V8H18.75V5.22H17.25ZM9 19.25H7.22V20.75H9V19.25ZM4.75 16.78V5.22H3.25V16.78H4.75ZM7.22 19.25C6.63792 19.25 6.24722 19.2494 5.94653 19.2244C5.65482 19.2002 5.51562 19.157 5.42378 19.1093L4.73232 20.4404C5.07395 20.6179 5.43624 20.6872 5.82239 20.7193C6.19956 20.7506 6.6631 20.75 7.22 20.75V19.25ZM3.25 16.78C3.25 17.3369 3.2494 17.8004 3.28072 18.1776C3.31279 18.5638 3.38215 18.926 3.55961 19.2677L4.89073 18.5762C4.84303 18.4844 4.7998 18.3452 4.77557 18.0535C4.7506 17.7528 4.75 17.3621 4.75 16.78H3.25ZM5.42378 19.1093C5.19548 18.9907 5.00933 18.8045 4.89073 18.5762L3.55961 19.2677C3.82052 19.7699 4.23005 20.1795 4.73232 20.4404L5.42378 19.1093ZM14.78 2.75C15.3621 2.75 15.7528 2.7506 16.0535 2.77557C16.3452 2.7998 16.4844 2.84302 16.5762 2.89073L17.2677 1.55961C16.926 1.38215 16.5638 1.31279 16.1776 1.28072C15.8004 1.2494 15.3369 1.25 14.78 1.25V2.75ZM18.75 5.22C18.75 4.6631 18.7506 4.19956 18.7193 3.82239C18.6872 3.43624 18.6179 3.07396 18.4404 2.73232L17.1093 3.42378C17.157 3.51562 17.2002 3.65482 17.2244 3.94653C17.2494 4.24722 17.25 4.63792 17.25 5.22H18.75ZM16.5762 2.89073C16.8045 3.00933 16.9907 3.19548 17.1093 3.42378L18.4404 2.73232C18.1795 2.23005 17.7699 1.82052 17.2677 1.55961L16.5762 2.89073ZM7.22 1.25C6.6631 1.25 6.19956 1.2494 5.82239 1.28072C5.43624 1.31279 5.07395 1.38215 4.73232 1.55961L5.42378 2.89073C5.51562 2.84303 5.65482 2.7998 5.94653 2.77557C6.24722 2.7506 6.63792 2.75 7.22 2.75V1.25ZM4.75 5.22C4.75 4.63792 4.7506 4.24722 4.77557 3.94653C4.7998 3.65482 4.84303 3.51562 4.89073 3.42378L3.55961 2.73232C3.38215 3.07395 3.31279 3.43624 3.28072 3.82239C3.2494 4.19956 3.25 4.6631 3.25 5.22H4.75ZM4.73232 1.55961C4.23005 1.82052 3.82052 2.23005 3.55961 2.73232L4.89073 3.42378C5.00933 3.19548 5.19548 3.00933 5.42378 2.89073L4.73232 1.55961ZM18.25 14C18.25 14.6904 17.6904 15.25 17 15.25V16.75C18.5188 16.75 19.75 15.5188 19.75 14H18.25ZM17 15.25C16.3096 15.25 15.75 14.6904 15.75 14H14.25C14.25 15.5188 15.4812 16.75 17 16.75V15.25ZM15.75 14C15.75 13.3096 16.3096 12.75 17 12.75V11.25C15.4812 11.25 14.25 12.4812 14.25 14H15.75ZM17 12.75C17.6904 12.75 18.25 13.3096 18.25 14H19.75C19.75 12.4812 18.5188 11.25 17 11.25V12.75ZM20.9949 19.25H13.0051V20.75H20.9949V19.25ZM20.25 19.9949C20.25 19.5835 20.5835 19.25 20.9949 19.25V20.75C21.4119 20.75 21.75 20.4119 21.75 19.9949H20.25ZM17 16.75C18.7933 16.75 20.25 18.204 20.25 19.9949H21.75C21.75 17.3731 19.6193 15.25 17 15.25V16.75ZM13.75 19.9949C13.75 18.204 15.2067 16.75 17 16.75V15.25C14.3807 15.25 12.25 17.3731 12.25 19.9949H13.75ZM12.25 19.9949C12.25 20.4119 12.5881 20.75 13.0051 20.75V19.25C13.4165 19.25 13.75 19.5835 13.75 19.9949H12.25Z" fill="#333333"/>
</svg>
