<svg width="95" height="102" viewBox="0 0 95 102" fill="none" xmlns="http://www.w3.org/2000/svg">
<path fill-rule="evenodd" clip-rule="evenodd" d="M0 22.9189V65.2965C0 70.5433 2.68107 75.4279 7.11146 78.2526L40.5642 99.5816C45.7724 102.902 52.465 102.795 57.5639 99.3097L88.3004 78.2983C92.4934 75.432 95 70.6863 95 65.6142V30.6041L51.926 73.5822C49.9954 75.5053 47.379 76.5855 44.6512 76.5855C41.9234 76.5855 39.3071 75.5053 37.3764 73.5822L19.0748 55.3208C18.7555 55.0033 18.5021 54.6261 18.3292 54.2107C18.1563 53.7953 18.0673 53.3499 18.0673 52.9001C18.0673 52.4503 18.1563 52.005 18.3292 51.5896C18.5021 51.1742 18.7555 50.7969 19.0748 50.4795C19.3929 50.1608 19.7709 49.908 20.1871 49.7354C20.6033 49.5629 21.0496 49.4741 21.5003 49.4741C21.951 49.4741 22.3973 49.5629 22.8135 49.7354C23.2297 49.908 23.6077 50.1608 23.9258 50.4795L42.2206 68.7546C42.5387 69.0733 42.9166 69.3262 43.3329 69.4987C43.7491 69.6712 44.1954 69.7601 44.6461 69.7601C45.0968 69.7601 45.5431 69.6712 45.9593 69.4987C46.3755 69.3262 46.7535 69.0733 47.0716 68.7546L94.3799 21.5448C94.5452 21.3792 94.7267 21.2313 94.9214 21.1033C94.6561 18.4595 93.7021 15.925 91.7984 14.0557C72.7415 -4.65712 23.3274 -4.68514 3.43905 13.9713C1.00471 16.2549 0 19.5847 0 22.9189Z" fill="#F7941E"/>
<path fill-rule="evenodd" clip-rule="evenodd" d="M95 46.7732V30.6041L77.3713 48.1936C83.2738 47.8872 89.191 47.394 95 46.7732ZM67.3441 48.5244C43.6134 48.8294 21.277 45.5039 8.55856 34.5924C5.07336 31.6024 2.25213 28.7635 0 26.074V22.9189C0 19.5847 1.00471 16.2549 3.43905 13.9714C23.3274 -4.68515 72.7415 -4.65712 91.7984 14.0557C93.7021 15.925 94.6561 18.4595 94.9214 21.1033C94.7267 21.2313 94.5452 21.3792 94.3799 21.5449L67.3441 48.5244Z" fill="#1755A6"/>
<path d="M15.08 20.984H30.536V25.848H22.856V29.848H29.864V33.88H22.856V38.136H30.536V43H15.08V20.984ZM33.1513 20.984H40.5433V43H33.1513V20.984ZM60.4258 43.512C56.4151 43.512 53.9618 41.656 53.0658 37.944L52.2658 34.648H50.7618V43H43.7538V20.984H53.4498C55.2844 20.984 56.8951 21.2613 58.2818 21.816C59.6898 22.3493 60.7778 23.1067 61.5458 24.088C62.3138 25.0693 62.6978 26.2 62.6978 27.48C62.6978 28.9093 62.3458 30.1147 61.6418 31.096C60.9591 32.056 59.8924 32.8453 58.4418 33.464C58.5911 34.2747 58.7618 35.0107 58.9538 35.672C59.2098 36.4827 59.5618 37.048 60.0098 37.368C60.4578 37.688 61.1084 37.848 61.9618 37.848C62.2604 37.848 62.7298 37.8053 63.3698 37.72V42.936C62.3671 43.32 61.3858 43.512 60.4258 43.512ZM51.9778 30.168C53.5564 30.168 54.6658 29.9973 55.3058 29.656C55.9671 29.2933 56.2978 28.6853 56.2978 27.832C56.2978 27.1067 56.0311 26.584 55.4978 26.264C54.9644 25.9227 54.1218 25.752 52.9698 25.752H50.7618V30.168H51.9778ZM71.9535 43.512C68.9455 43.512 66.4068 42.9573 64.3375 41.848L65.9375 36.888C68.1348 37.6773 70.0975 38.072 71.8255 38.072C72.7642 38.072 73.4468 37.9653 73.8735 37.752C74.3215 37.5173 74.5455 37.176 74.5455 36.728C74.5455 36.4293 74.4282 36.1733 74.1935 35.96C73.9588 35.7253 73.4895 35.4693 72.7855 35.192C72.0815 34.9147 71.0255 34.5733 69.6175 34.168C67.8895 33.656 66.5455 32.824 65.5855 31.672C64.6255 30.4987 64.1455 29.1547 64.1455 27.64C64.1455 25.2933 64.9135 23.5227 66.4495 22.328C68.0068 21.112 70.0975 20.504 72.7215 20.504C74.0868 20.504 75.4308 20.6533 76.7535 20.952C78.0762 21.2293 79.2495 21.6453 80.2735 22.2L78.5455 27.032C77.3508 26.6267 76.3055 26.3387 75.4095 26.168C74.5348 25.976 73.6815 25.88 72.8495 25.88C71.4415 25.88 70.7375 26.264 70.7375 27.032C70.7375 27.416 70.9615 27.7467 71.4095 28.024C71.8788 28.28 72.8282 28.6107 74.2575 29.016C76.4975 29.6133 78.1935 30.5307 79.3455 31.768C80.4975 32.984 81.0735 34.4453 81.0735 36.152C81.0735 38.52 80.3055 40.344 78.7695 41.624C77.2335 42.8827 74.9615 43.512 71.9535 43.512Z" fill="white"/>
</svg>
