<svg width="24" height="24" viewBox="0 0 24 24" fill="none" xmlns="http://www.w3.org/2000/svg">
<path d="M7.2 22L7.2 21.25L7.2 21.25L7.2 22ZM16.8 22L16.8 22.75L16.8 22.75L16.8 22ZM20 18.8L19.25 18.8L19.25 18.8L20 18.8ZM20 5.2L20.75 5.2L20.75 5.2L20 5.2ZM19.782 3.09202L20.4503 2.75153L20.4503 2.75152L19.782 3.09202ZM16.8 2L16.8 1.25L16.8 2ZM18.908 2.21799L19.2485 1.54973L19.2485 1.54973L18.908 2.21799ZM18.908 21.782L19.2485 22.4503L19.2485 22.4503L18.908 21.782ZM19.782 20.908L19.1138 20.5675L19.1138 20.5675L19.782 20.908ZM5.09202 21.782L5.43251 21.1138L5.43251 21.1138L5.09202 21.782ZM4 18.8L3.25 18.8L4 18.8ZM4.21799 20.908L4.88624 20.5675L4.88624 20.5675L4.21799 20.908ZM4.75 8C4.75 7.58579 4.41421 7.25 4 7.25C3.58579 7.25 3.25 7.58579 3.25 8L4.75 8ZM10 1.25C9.58579 1.25 9.25 1.58579 9.25 2C9.25 2.41421 9.58579 2.75 10 2.75L10 1.25ZM4.17071 7.82929L3.64038 7.29896L4.17071 7.82929ZM9.82929 2.17071L10.3596 2.70104L9.82929 2.17071ZM4.24142 8L4.24142 8.75L4.24142 8ZM9 8L9 7.25L9 7.25L9 8ZM10 7L9.25 7L9.25 7L10 7ZM10 2.24142L10.75 2.24142L10.75 2.24142L10 2.24142ZM8 11.25C7.58579 11.25 7.25 11.5858 7.25 12C7.25 12.4142 7.58579 12.75 8 12.75V11.25ZM16 12.75C16.4142 12.75 16.75 12.4142 16.75 12C16.75 11.5858 16.4142 11.25 16 11.25V12.75ZM14 7.25C13.5858 7.25 13.25 7.58579 13.25 8C13.25 8.41421 13.5858 8.75 14 8.75V7.25ZM16 8.75C16.4142 8.75 16.75 8.41421 16.75 8C16.75 7.58579 16.4142 7.25 16 7.25V8.75ZM8 15.25C7.58579 15.25 7.25 15.5858 7.25 16C7.25 16.4142 7.58579 16.75 8 16.75V15.25ZM16 16.75C16.4142 16.75 16.75 16.4142 16.75 16C16.75 15.5858 16.4142 15.25 16 15.25V16.75ZM7.2 22.75H16.8V21.25H7.2V22.75ZM20.75 18.8V5.2H19.25V18.8H20.75ZM20.75 5.2C20.75 4.65232 20.7506 4.19646 20.7203 3.82533C20.6892 3.44544 20.6221 3.08879 20.4503 2.75153L19.1138 3.43251C19.1599 3.52307 19.2018 3.66035 19.2252 3.94748C19.2494 4.24336 19.25 4.62757 19.25 5.2L20.75 5.2ZM16.8 2.75C17.3724 2.75 17.7566 2.75058 18.0525 2.77476C18.3396 2.79822 18.4769 2.8401 18.5675 2.88624L19.2485 1.54973C18.9112 1.37789 18.5546 1.31078 18.1747 1.27974C17.8035 1.24942 17.3477 1.25 16.8 1.25L16.8 2.75ZM20.4503 2.75152C20.1866 2.23408 19.7659 1.81338 19.2485 1.54973L18.5675 2.88624C18.8027 3.00608 18.9939 3.19731 19.1138 3.43251L20.4503 2.75152ZM16.8 22.75C17.3477 22.75 17.8035 22.7506 18.1747 22.7203C18.5546 22.6892 18.9112 22.6221 19.2485 22.4503L18.5675 21.1138C18.4769 21.1599 18.3396 21.2018 18.0525 21.2252C17.7566 21.2494 17.3724 21.25 16.8 21.25L16.8 22.75ZM19.25 18.8C19.25 19.3724 19.2494 19.7566 19.2252 20.0525C19.2018 20.3396 19.1599 20.4769 19.1138 20.5675L20.4503 21.2485C20.6221 20.9112 20.6892 20.5546 20.7203 20.1747C20.7506 19.8035 20.75 19.3477 20.75 18.8L19.25 18.8ZM19.2485 22.4503C19.7659 22.1866 20.1866 21.7659 20.4503 21.2485L19.1138 20.5675C18.9939 20.8027 18.8027 20.9939 18.5675 21.1138L19.2485 22.4503ZM7.2 21.25C6.62757 21.25 6.24336 21.2494 5.94748 21.2252C5.66035 21.2018 5.52307 21.1599 5.43251 21.1138L4.75153 22.4503C5.08879 22.6221 5.44545 22.6892 5.82533 22.7203C6.19646 22.7506 6.65233 22.75 7.2 22.75L7.2 21.25ZM3.25 18.8C3.25 19.3477 3.24942 19.8035 3.27974 20.1747C3.31078 20.5546 3.37789 20.9112 3.54973 21.2485L4.88624 20.5675C4.8401 20.4769 4.79822 20.3396 4.77476 20.0525C4.75058 19.7566 4.75 19.3724 4.75 18.8L3.25 18.8ZM5.43251 21.1138C5.19731 20.9939 5.00609 20.8027 4.88624 20.5675L3.54973 21.2485C3.81338 21.7659 4.23408 22.1866 4.75153 22.4503L5.43251 21.1138ZM3.25 8L3.25 18.8L4.75 18.8L4.75 8L3.25 8ZM16.8 1.25L10 1.25L10 2.75L16.8 2.75L16.8 1.25ZM4.70104 8.35962L10.3596 2.70104L9.29896 1.64038L3.64038 7.29896L4.70104 8.35962ZM4.24142 8.75L9 8.75L9 7.25L4.24142 7.25L4.24142 8.75ZM10.75 7V2.24142H9.25V7H10.75ZM9 8.75C9.9665 8.75 10.75 7.9665 10.75 7L9.25 7C9.25 7.13807 9.13807 7.25 9 7.25L9 8.75ZM10.3596 2.70104C9.95014 3.11052 9.25 2.82051 9.25 2.24142L10.75 2.24142C10.75 1.48415 9.83443 1.10491 9.29896 1.64038L10.3596 2.70104ZM3.64038 7.29896C3.10491 7.83443 3.48415 8.75 4.24142 8.75L4.24142 7.25C4.82051 7.25 5.11052 7.95014 4.70104 8.35962L3.64038 7.29896ZM8 12.75H16V11.25H8V12.75ZM14 8.75H16V7.25H14V8.75ZM8 16.75H16V15.25H8V16.75Z" fill="#333333"/>
</svg>
