<svg width="32" height="32" viewBox="0 0 32 32" fill="none" xmlns="http://www.w3.org/2000/svg">
<g clip-path="url(#clip0_774_60853)">
<path d="M25.3333 32H24C23.6464 32 23.3072 31.8595 23.0572 31.6095C22.8071 31.3594 22.6667 31.0203 22.6667 30.6667C22.6667 30.313 22.8071 29.9739 23.0572 29.7239C23.3072 29.4738 23.6464 29.3333 24 29.3333H25.3333C26.3942 29.3333 27.4116 28.9119 28.1618 28.1618C28.9119 27.4116 29.3333 26.3942 29.3333 25.3333V24C29.3333 23.6464 29.4738 23.3072 29.7239 23.0572C29.9739 22.8071 30.313 22.6667 30.6667 22.6667C31.0203 22.6667 31.3594 22.8071 31.6095 23.0572C31.8595 23.3072 32 23.6464 32 24V25.3333C31.9979 27.1008 31.2948 28.7953 30.045 30.045C28.7953 31.2948 27.1008 31.9979 25.3333 32ZM32 8V6.66667C31.9979 4.89921 31.2948 3.20474 30.045 1.95496C28.7953 0.705176 27.1008 0.00211714 25.3333 0L24 0C23.6464 0 23.3072 0.140476 23.0572 0.390524C22.8071 0.640573 22.6667 0.979711 22.6667 1.33333C22.6667 1.68696 22.8071 2.02609 23.0572 2.27614C23.3072 2.52619 23.6464 2.66667 24 2.66667H25.3333C26.3942 2.66667 27.4116 3.08809 28.1618 3.83824C28.9119 4.58839 29.3333 5.6058 29.3333 6.66667V8C29.3333 8.35362 29.4738 8.69276 29.7239 8.94281C29.9739 9.19286 30.313 9.33333 30.6667 9.33333C31.0203 9.33333 31.3594 9.19286 31.6095 8.94281C31.8595 8.69276 32 8.35362 32 8ZM9.33333 30.6667C9.33333 30.313 9.19286 29.9739 8.94281 29.7239C8.69276 29.4738 8.35362 29.3333 8 29.3333H6.66667C5.6058 29.3333 4.58839 28.9119 3.83824 28.1618C3.08809 27.4116 2.66667 26.3942 2.66667 25.3333V24C2.66667 23.6464 2.52619 23.3072 2.27614 23.0572C2.02609 22.8071 1.68696 22.6667 1.33333 22.6667C0.979711 22.6667 0.640573 22.8071 0.390524 23.0572C0.140476 23.3072 0 23.6464 0 24L0 25.3333C0.00211714 27.1008 0.705176 28.7953 1.95496 30.045C3.20474 31.2948 4.89921 31.9979 6.66667 32H8C8.35362 32 8.69276 31.8595 8.94281 31.6095C9.19286 31.3594 9.33333 31.0203 9.33333 30.6667ZM2.66667 8V6.66667C2.66667 5.6058 3.08809 4.58839 3.83824 3.83824C4.58839 3.08809 5.6058 2.66667 6.66667 2.66667H8C8.35362 2.66667 8.69276 2.52619 8.94281 2.27614C9.19286 2.02609 9.33333 1.68696 9.33333 1.33333C9.33333 0.979711 9.19286 0.640573 8.94281 0.390524C8.69276 0.140476 8.35362 0 8 0L6.66667 0C4.89921 0.00211714 3.20474 0.705176 1.95496 1.95496C0.705176 3.20474 0.00211714 4.89921 0 6.66667L0 8C0 8.35362 0.140476 8.69276 0.390524 8.94281C0.640573 9.19286 0.979711 9.33333 1.33333 9.33333C1.68696 9.33333 2.02609 9.19286 2.27614 8.94281C2.52619 8.69276 2.66667 8.35362 2.66667 8Z" fill="#374957"/>
<path fill-rule="evenodd" clip-rule="evenodd" d="M0 16C0 15.2636 0.596954 14.6667 1.33333 14.6667H30.6667C31.403 14.6667 32 15.2636 32 16C32 16.7364 31.403 17.3334 30.6667 17.3334H1.33333C0.596954 17.3334 0 16.7364 0 16Z" fill="#374957"/>
</g>
<defs>
<clipPath id="clip0_774_60853">
<rect width="32" height="32" fill="white"/>
</clipPath>
</defs>
</svg>
