<svg width="40" height="40" viewBox="0 0 40 40" fill="none" xmlns="http://www.w3.org/2000/svg">
<circle cx="20" cy="20" r="20" fill="white"/>
<path d="M22.3124 22.3125H22.6874M22.3124 22.6875H22.6874M22.3124 28.3125H22.6874M22.3124 28.6875H22.6874M25.3124 25.3125H25.6874M25.3124 25.6875H25.6874M28.3124 22.3125H28.6874M28.3124 22.6875H28.6874M28.3124 28.3125H28.6874M28.3124 28.6875H28.6874M13 18H16C17.1046 18 18 17.1046 18 16V13C18 11.8954 17.1046 11 16 11H13C11.8954 11 11 11.8954 11 13V16C11 17.1046 11.8954 18 13 18ZM13 29H16C17.1046 29 18 28.1046 18 27V24C18 22.8954 17.1046 22 16 22H13C11.8954 22 11 22.8954 11 24V27C11 28.1046 11.8954 29 13 29ZM24 18H27C28.1046 18 29 17.1046 29 16V13C29 11.8954 28.1046 11 27 11H24C22.8954 11 22 11.8954 22 13V16C22 17.1046 22.8954 18 24 18ZM23 22.5C23 22.7761 22.7761 23 22.5 23C22.2239 23 22 22.7761 22 22.5C22 22.2239 22.2239 22 22.5 22C22.7761 22 23 22.2239 23 22.5ZM23 28.5C23 28.7761 22.7761 29 22.5 29C22.2239 29 22 28.7761 22 28.5C22 28.2239 22.2239 28 22.5 28C22.7761 28 23 28.2239 23 28.5ZM26 25.5C26 25.7761 25.7761 26 25.5 26C25.2239 26 25 25.7761 25 25.5C25 25.2239 25.2239 25 25.5 25C25.7761 25 26 25.2239 26 25.5ZM29 22.5C29 22.7761 28.7761 23 28.5 23C28.2239 23 28 22.7761 28 22.5C28 22.2239 28.2239 22 28.5 22C28.7761 22 29 22.2239 29 22.5ZM29 28.5C29 28.7761 28.7761 29 28.5 29C28.2239 29 28 28.7761 28 28.5C28 28.2239 28.2239 28 28.5 28C28.7761 28 29 28.2239 29 28.5Z" stroke="#333333" stroke-width="2" stroke-linecap="round"/>
</svg>
