<svg width="44" height="42" viewBox="0 0 44 42" fill="none" xmlns="http://www.w3.org/2000/svg">
<path d="M38.8281 26.9912L37.5011 27.6905V27.6905L38.8281 26.9912ZM30.4731 11.1355L31.8001 10.4362V10.4362L30.4731 11.1355ZM13.5269 11.1355L12.1999 10.4362L13.5269 11.1355ZM5.1719 26.9912L6.49894 27.6905L5.1719 26.9912ZM24.5372 2.54197L25.1528 1.17411V1.17411L24.5372 2.54197ZM19.4628 2.54197L20.0784 3.90984L19.4628 2.54197ZM39.4964 38.9857L40.3259 40.2355L39.4964 38.9857ZM41.9602 35.2031L40.478 34.9723L41.9602 35.2031ZM4.50359 38.9857L3.67414 40.2355H3.67415L4.50359 38.9857ZM2.03985 35.2031L3.52199 34.9723L2.03985 35.2031ZM23.5 15.9933C23.4963 15.1649 22.8217 14.4963 21.9933 14.5C21.1649 14.5037 20.4963 15.1783 20.5 16.0067L23.5 15.9933ZM20.5449 26.0066C20.5486 26.835 21.2232 27.5035 22.0516 27.4998C22.88 27.4961 23.5486 26.8215 23.5449 25.9931L20.5449 26.0066ZM23.5 32C23.5 31.1716 22.8284 30.5 22 30.5C21.1716 30.5 20.5 31.1716 20.5 32H23.5ZM20.5 32.02C20.5 32.8484 21.1716 33.52 22 33.52C22.8284 33.52 23.5 32.8484 23.5 32.02H20.5ZM13.645 41.5H30.355V38.5H13.645V41.5ZM40.1551 26.2919L31.8001 10.4362L29.146 11.8347L37.5011 27.6905L40.1551 26.2919ZM12.1999 10.4362L3.84487 26.2919L6.49894 27.6905L14.854 11.8348L12.1999 10.4362ZM31.8001 10.4362C30.4508 7.8755 29.3904 5.85987 28.4304 4.38936C27.4788 2.93166 26.4808 1.77177 25.1528 1.17411L23.9216 3.90984C24.4387 4.14257 25.0451 4.69172 25.9184 6.02932C26.7832 7.35411 27.7682 9.22004 29.146 11.8347L31.8001 10.4362ZM14.854 11.8348C16.2318 9.22005 17.2168 7.35412 18.0816 6.02933C18.9549 4.69172 19.5613 4.14257 20.0784 3.90984L18.8472 1.17411C17.5192 1.77177 16.5212 2.93166 15.5696 4.38936C14.6096 5.85988 13.5492 7.8755 12.1999 10.4362L14.854 11.8348ZM25.1528 1.17411C23.1556 0.275298 20.8444 0.275298 18.8472 1.17411L20.0784 3.90984C21.2927 3.36339 22.7073 3.36339 23.9216 3.90984L25.1528 1.17411ZM30.355 41.5C32.8649 41.5 34.8455 41.5013 36.3856 41.3676C37.9204 41.2343 39.2434 40.9539 40.3259 40.2355L38.667 37.7359C38.221 38.0318 37.5111 38.2586 36.1261 38.3788C34.7465 38.4987 32.9205 38.5 30.355 38.5V41.5ZM37.5011 27.6905C38.6501 29.8711 39.4605 31.4125 39.9604 32.6269C40.4619 33.845 40.5502 34.5087 40.478 34.9723L43.4423 35.4339C43.6427 34.1468 43.2999 32.8582 42.7346 31.4849C42.1677 30.1079 41.2758 28.4187 40.1551 26.2919L37.5011 27.6905ZM40.3259 40.2355C41.9974 39.1262 43.1369 37.3952 43.4423 35.4339L40.478 34.9723C40.3073 36.0684 39.6645 37.0738 38.667 37.7359L40.3259 40.2355ZM13.645 38.5C11.0795 38.5 9.25354 38.4987 7.87393 38.3788C6.48894 38.2586 5.77896 38.0318 5.33303 37.7359L3.67415 40.2355C4.75656 40.9539 6.07959 41.2343 7.61437 41.3676C9.15453 41.5013 11.1351 41.5 13.645 41.5V38.5ZM3.84487 26.2919C2.72419 28.4187 1.83225 30.108 1.26541 31.485C0.700102 32.8582 0.357302 34.1468 0.557708 35.4339L3.52199 34.9723C3.4498 34.5087 3.53814 33.845 4.03956 32.6269C4.53947 31.4125 5.34985 29.8712 6.49894 27.6905L3.84487 26.2919ZM5.33303 37.7359C4.33546 37.0738 3.69266 36.0684 3.52199 34.9723L0.557708 35.4339C0.863104 37.3952 2.00261 39.1262 3.67414 40.2355L5.33303 37.7359ZM20.5 16.0067L20.5449 26.0066L23.5449 25.9931L23.5 15.9933L20.5 16.0067ZM20.5 32V32.02H23.5V32H20.5Z" fill="white"/>
</svg>
