<svg width="48" height="48" viewBox="0 0 48 48" fill="none" xmlns="http://www.w3.org/2000/svg">
<g clip-path="url(#clip0_48_41277)">
<path d="M31.9999 16.0001C31.6248 15.6252 31.1162 15.4146 30.5859 15.4146C30.0555 15.4146 29.5469 15.6252 29.1719 16.0001L23.9999 21.1721L18.8279 16.0001C18.4507 15.6358 17.9455 15.4342 17.4211 15.4388C16.8967 15.4433 16.3951 15.6537 16.0243 16.0245C15.6534 16.3953 15.4431 16.8969 15.4386 17.4213C15.434 17.9457 15.6356 18.4509 15.9999 18.8281L21.1719 24.0001L15.9999 29.1721C15.6356 29.5493 15.434 30.0545 15.4386 30.5789C15.4431 31.1033 15.6534 31.6049 16.0243 31.9758C16.3951 32.3466 16.8967 32.5569 17.4211 32.5615C17.9455 32.566 18.4507 32.3644 18.8279 32.0001L23.9999 26.8281L29.1719 32.0001C29.5491 32.3644 30.0543 32.566 30.5787 32.5615C31.1031 32.5569 31.6047 32.3466 31.9755 31.9758C32.3463 31.6049 32.5567 31.1033 32.5612 30.5789C32.5658 30.0545 32.3642 29.5493 31.9999 29.1721L26.8279 24.0001L31.9999 18.8281C32.3748 18.4531 32.5854 17.9445 32.5854 17.4141C32.5854 16.8838 32.3748 16.3752 31.9999 16.0001Z" fill="white"/>
<path d="M24 0C19.2533 0 14.6131 1.40758 10.6663 4.04473C6.71954 6.68188 3.64341 10.4302 1.8269 14.8156C0.0103989 19.201 -0.464881 24.0266 0.461164 28.6822C1.38721 33.3377 3.67299 37.6141 7.02945 40.9706C10.3859 44.327 14.6623 46.6128 19.3178 47.5389C23.9734 48.4649 28.799 47.9896 33.1844 46.1731C37.5698 44.3566 41.3181 41.2805 43.9553 37.3337C46.5924 33.3869 48 28.7468 48 24C47.9931 17.6369 45.4624 11.5364 40.963 7.03704C36.4636 2.53766 30.3631 0.00688216 24 0V0ZM24 44C20.0444 44 16.1776 42.827 12.8886 40.6294C9.59962 38.4318 7.03617 35.3082 5.52242 31.6537C4.00867 27.9992 3.6126 23.9778 4.38431 20.0982C5.15601 16.2186 7.06082 12.6549 9.85787 9.85787C12.6549 7.06081 16.2186 5.156 20.0982 4.3843C23.9778 3.61259 27.9992 4.00866 31.6537 5.52241C35.3082 7.03616 38.4318 9.59961 40.6294 12.8886C42.827 16.1776 44 20.0444 44 24C43.9942 29.3025 41.8852 34.3862 38.1357 38.1357C34.3862 41.8852 29.3026 43.9942 24 44V44Z" fill="white"/>
</g>
<defs>
<clipPath id="clip0_48_41277">
<rect width="48" height="48" fill="white"/>
</clipPath>
</defs>
</svg>
